<svg version="1.1" id="Layer_1" xmlns="http://www.w3.org/2000/svg" xmlns:xlink="http://www.w3.org/1999/xlink" x="0px" y="0px"
	 width="100%" viewBox="0 0 240 202" enable-background="new 0 0 240 202" xml:space="preserve">
<path fill="#FFFFFF" opacity="1.000000" stroke="none" 
	d="
M77.000000,203.000000 
	C65.645775,203.000000 54.291546,203.000000 42.553135,202.662872 
	C43.881542,199.302307 45.388298,196.138290 47.341278,193.279068 
	C57.378956,178.583633 67.546829,163.977188 77.638626,149.318604 
	C85.468033,137.946167 93.273216,126.556900 101.040436,115.141960 
	C102.723709,112.668159 104.046295,109.999748 99.141434,109.958122 
	C88.644646,109.869057 78.144531,109.800110 67.652344,110.026726 
	C66.394638,110.053894 65.177612,111.963943 63.971939,112.999886 
	C64.002151,112.998497 63.979870,112.942261 63.701927,113.077850 
	C63.225380,113.782936 63.026772,114.352440 62.873920,114.929382 
	C62.919674,114.936836 62.887356,114.849937 62.632408,114.945938 
	C62.242401,115.369125 62.107338,115.696312 61.996380,116.018555 
	C62.020481,116.013611 62.015282,115.964684 61.759369,116.080933 
	C61.375023,116.536850 61.246590,116.876518 61.049324,117.316269 
	C60.980492,117.416336 60.911602,117.649292 60.655464,117.799263 
	C60.253868,118.305450 60.108410,118.661667 59.988770,119.013039 
	C60.014584,119.008194 60.002033,118.957176 59.728310,119.094604 
	C59.239285,119.788734 59.023983,120.345436 58.858002,120.914978 
	C58.907330,120.927818 58.866169,120.834564 58.612457,120.932579 
	C58.227108,121.359589 58.095467,121.688583 57.989319,122.013466 
	C58.014816,122.009346 58.004498,121.958733 57.720230,122.099594 
	C57.181778,122.816254 56.927589,123.392059 56.452003,124.200592 
	C54.431885,126.810219 52.529602,129.116409 50.850864,131.575226 
	C37.667782,150.884216 24.495764,170.200974 11.398266,189.568024 
	C8.442059,193.939331 5.791340,198.517212 3.000000,203.000000 
	C2.333335,202.667236 1.216281,202.453186 1.090958,201.977737 
	C0.803591,200.887482 1.000000,199.669693 1.000000,198.503693 
	C1.000000,132.707825 1.000000,66.911964 1.000000,1.058049 
	C80.915733,1.058049 160.831528,1.058049 240.873657,1.058049 
	C240.873657,68.210571 240.873657,135.421463 240.873657,203.000000 
	C200.313171,203.000000 159.625244,203.000000 118.635086,202.709717 
	C119.918045,200.287567 121.640015,198.243149 123.067184,196.010300 
	C136.922546,174.333344 150.631531,152.562286 164.571426,130.940033 
	C185.171860,98.986588 205.933990,67.137413 226.607880,35.231274 
	C230.035904,29.940781 233.435059,24.628508 236.693893,19.233473 
	C237.583694,17.760408 239.544159,15.493367 235.473846,15.109188 
	C235.369476,15.105968 235.180023,15.193833 234.705261,15.077967 
	C225.407196,14.907096 216.583435,14.788808 207.760986,14.852060 
	C206.056870,14.864277 204.357834,15.586742 202.404938,16.183115 
	C189.785004,34.688488 177.354919,52.951027 165.061615,71.305176 
	C142.775894,104.578201 120.577469,137.909683 98.329964,171.208328 
	C91.240562,181.819305 84.111122,192.403534 77.000000,203.000000 
z"/>
<path fill="#FC04DA" opacity="1.000000" stroke="none" 
	d="
M77.468658,203.000000 
	C84.111122,192.403534 91.240562,181.819305 98.329964,171.208328 
	C120.577469,137.909683 142.775894,104.578201 165.061615,71.305176 
	C177.354919,52.951027 189.785004,34.688488 202.905029,16.207623 
	C209.772247,16.029167 215.890213,16.130627 222.002731,15.991755 
	C226.398926,15.891873 230.787857,15.471334 235.180023,15.193833 
	C235.180023,15.193833 235.369476,15.105968 235.534637,15.459150 
	C230.297623,24.242483 224.882751,32.664513 219.495804,41.104389 
	C206.059967,62.154705 192.701767,83.254883 179.192749,104.258087 
	C160.886780,132.719406 142.422241,161.078827 124.150040,189.561707 
	C121.419357,193.818314 119.366455,198.509735 117.000000,203.000000 
	C103.979103,203.000000 90.958214,203.000000 77.468658,203.000000 
z"/>
<path fill="#FC04DA" opacity="1.000000" stroke="none" 
	d="
M60.911598,117.649292 
	C60.911602,117.649292 60.980492,117.416336 61.281967,117.171967 
	C61.727394,116.606621 61.871338,116.285652 62.015282,115.964684 
	C62.015282,115.964684 62.020481,116.013611 62.243164,115.909286 
	C62.606350,115.486618 62.746853,115.168274 62.887356,114.849937 
	C62.887356,114.849937 62.919674,114.936836 63.162491,114.799324 
	C63.596825,114.088631 63.788345,113.515442 63.979870,112.942261 
	C63.979870,112.942261 64.002151,112.998497 64.334488,112.857010 
	C66.872787,112.156792 69.067673,111.174294 71.286743,111.116257 
	C78.932053,110.916275 86.585930,111.016541 94.236252,111.057999 
	C95.788956,111.066414 97.340363,111.316925 99.798706,111.536949 
	C98.693642,113.768280 98.137825,115.256645 97.282928,116.546829 
	C94.901840,120.140327 92.377419,123.638443 89.943611,127.197487 
	C75.528275,148.277588 61.058792,169.321243 46.771175,190.487610 
	C44.130581,194.399521 42.237892,198.816269 40.000000,203.000000 
	C27.979105,203.000000 15.958210,203.000000 3.468657,203.000000 
	C5.791340,198.517212 8.442059,193.939331 11.398266,189.568024 
	C24.495764,170.200974 37.667782,150.884216 50.850864,131.575226 
	C52.529602,129.116409 54.431885,126.810219 56.765461,124.080154 
	C57.535042,123.137573 57.769768,122.548149 58.004494,121.958733 
	C58.004498,121.958733 58.014816,122.009346 58.234035,121.900505 
	C58.590897,121.472633 58.728535,121.153603 58.866173,120.834564 
	C58.866169,120.834564 58.907330,120.927818 59.148018,120.791710 
	C59.593147,120.089462 59.797592,119.523315 60.002037,118.957176 
	C60.002033,118.957176 60.014584,119.008194 60.252205,118.872314 
	C60.630421,118.374054 60.771011,118.011673 60.911598,117.649292 
z"/>
<path fill="#C572BA" opacity="1.000000" stroke="none" 
	d="
M117.250000,203.000000 
	C119.366455,198.509735 121.419357,193.818314 124.150040,189.561707 
	C142.422241,161.078827 160.886780,132.719406 179.192749,104.258087 
	C192.701767,83.254883 206.059967,62.154705 219.495804,41.104389 
	C224.882751,32.664513 230.297623,24.242483 235.639008,15.462370 
	C239.544159,15.493367 237.583694,17.760408 236.693893,19.233473 
	C233.435059,24.628508 230.035904,29.940781 226.607880,35.231274 
	C205.933990,67.137413 185.171860,98.986588 164.571426,130.940033 
	C150.631531,152.562286 136.922546,174.333344 123.067184,196.010300 
	C121.640015,198.243149 119.918045,200.287567 118.166428,202.709717 
	C118.000000,203.000000 117.500000,203.000000 117.250000,203.000000 
z"/>
<path fill="#C864BA" opacity="1.000000" stroke="none" 
	d="
M40.333336,203.000000 
	C42.237892,198.816269 44.130581,194.399521 46.771175,190.487610 
	C61.058792,169.321243 75.528275,148.277588 89.943611,127.197487 
	C92.377419,123.638443 94.901840,120.140327 97.282928,116.546829 
	C98.137825,115.256645 98.693642,113.768280 99.798706,111.536949 
	C97.340363,111.316925 95.788956,111.066414 94.236252,111.057999 
	C86.585930,111.016541 78.932053,110.916275 71.286743,111.116257 
	C69.067673,111.174294 66.872787,112.156792 64.304276,112.858398 
	C65.177612,111.963943 66.394638,110.053894 67.652344,110.026726 
	C78.144531,109.800110 88.644646,109.869057 99.141434,109.958122 
	C104.046295,109.999748 102.723709,112.668159 101.040436,115.141960 
	C93.273216,126.556900 85.468033,137.946167 77.638626,149.318604 
	C67.546829,163.977188 57.378956,178.583633 47.341278,193.279068 
	C45.388298,196.138290 43.881542,199.302307 42.084476,202.662872 
	C41.555553,203.000000 41.111111,203.000000 40.333336,203.000000 
z"/>
<path fill="#D633BE" opacity="1.000000" stroke="none" 
	d="
M234.705261,15.077967 
	C230.787857,15.471334 226.398926,15.891873 222.002731,15.991755 
	C215.890213,16.130627 209.772247,16.029167 203.156540,16.006077 
	C204.357834,15.586742 206.056870,14.864277 207.760986,14.852060 
	C216.583435,14.788808 225.407196,14.907096 234.705261,15.077967 
z"/>
<path fill="#C864BA" opacity="1.000000" stroke="none" 
	d="
M63.701927,113.077850 
	C63.788345,113.515442 63.596825,114.088631 63.116737,114.791870 
	C63.026772,114.352440 63.225380,113.782936 63.701927,113.077850 
z"/>
<path fill="#C864BA" opacity="1.000000" stroke="none" 
	d="
M59.728313,119.094604 
	C59.797592,119.523315 59.593147,120.089462 59.098690,120.778870 
	C59.023983,120.345436 59.239285,119.788734 59.728313,119.094604 
z"/>
<path fill="#C864BA" opacity="1.000000" stroke="none" 
	d="
M57.720230,122.099594 
	C57.769768,122.548149 57.535042,123.137573 56.986862,123.847427 
	C56.927589,123.392059 57.181778,122.816254 57.720230,122.099594 
z"/>
<path fill="#C864BA" opacity="1.000000" stroke="none" 
	d="
M62.632408,114.945938 
	C62.746853,115.168274 62.606350,115.486618 62.219063,115.914223 
	C62.107338,115.696312 62.242401,115.369125 62.632408,114.945938 
z"/>
<path fill="#C864BA" opacity="1.000000" stroke="none" 
	d="
M61.759369,116.080933 
	C61.871338,116.285652 61.727394,116.606621 61.350803,117.071892 
	C61.246590,116.876518 61.375023,116.536850 61.759369,116.080933 
z"/>
<path fill="#C864BA" opacity="1.000000" stroke="none" 
	d="
M60.655464,117.799263 
	C60.771011,118.011673 60.630421,118.374054 60.226391,118.877159 
	C60.108410,118.661667 60.253868,118.305450 60.655464,117.799263 
z"/>
<path fill="#C864BA" opacity="1.000000" stroke="none" 
	d="
M58.612461,120.932579 
	C58.728535,121.153603 58.590897,121.472633 58.208542,121.904625 
	C58.095467,121.688583 58.227108,121.359589 58.612461,120.932579 
z"/>
</svg>