<svg version="1.1" id="Layer_1" xmlns="http://www.w3.org/2000/svg" xmlns:xlink="http://www.w3.org/1999/xlink" x="0px" y="0px"
	 width="100%" viewBox="0 0 239 201" enable-background="new 0 0 239 201" xml:space="preserve">
<path fill="#FFFFFF" opacity="1.000000" stroke="none" 
	d="
M0.999999,201.000000 
	C1.000000,134.371582 1.000000,67.743149 1.000000,1.057364 
	C80.582687,1.057364 160.165421,1.057364 239.874084,1.057364 
	C239.874084,67.877411 239.874084,134.755142 239.874084,202.000000 
	C199.313171,202.000000 158.625244,202.000000 117.475128,201.637360 
	C121.329475,194.584320 125.665619,187.906479 129.959274,181.201447 
	C153.472168,144.483337 176.927261,107.728104 200.501450,71.049400 
	C211.676010,53.663063 223.090454,36.431011 234.329102,19.085569 
	C235.206299,17.731728 235.553329,16.034365 236.338440,14.000000 
	C229.170197,14.000000 222.780838,14.596745 216.546814,13.866811 
	C205.928909,12.623577 197.578629,14.685362 193.561951,25.800489 
	C193.086746,27.115524 191.766418,28.104162 190.952576,29.320843 
	C157.821060,78.852654 124.687309,128.382996 91.598473,177.943314 
	C86.292252,185.890945 81.194252,193.977600 76.000000,202.000000 
	C64.645775,202.000000 53.291546,202.000000 41.475815,201.627441 
	C42.445969,198.562256 43.666603,195.729202 45.347874,193.202698 
	C50.939770,184.799500 56.655190,176.477386 62.400146,168.177414 
	C73.158714,152.634064 84.019867,137.161484 94.726532,121.582619 
	C97.365936,117.742119 99.575394,113.606125 102.347031,109.000191 
	C89.909828,109.000191 78.745514,108.901024 67.587151,109.113541 
	C66.022156,109.143356 63.917339,110.308601 63.021515,111.608978 
	C47.592533,134.005798 32.370251,156.544861 16.971470,178.962662 
	C11.836535,186.438187 6.334315,193.661423 0.999999,201.000000 
z"/>
<path fill="#9D0EA4" opacity="1.000000" stroke="none" 
	d="
M76.468658,202.000000 
	C81.194252,193.977600 86.292252,185.890945 91.598473,177.943314 
	C124.687309,128.382996 157.821060,78.852654 190.952576,29.320843 
	C191.766418,28.104162 193.086746,27.115524 193.561951,25.800489 
	C197.578629,14.685362 205.928909,12.623577 216.546814,13.866811 
	C222.780838,14.596745 229.170197,14.000000 236.338440,14.000000 
	C235.553329,16.034365 235.206299,17.731728 234.329102,19.085569 
	C223.090454,36.431011 211.676010,53.663063 200.501450,71.049400 
	C176.927261,107.728104 153.472168,144.483337 129.959274,181.201447 
	C125.665619,187.906479 121.329475,194.584320 117.006470,201.637360 
	C103.645775,202.000000 90.291542,202.000000 76.468658,202.000000 
z"/>
<path fill="#9D0EA4" opacity="1.000000" stroke="none" 
	d="
M0.999999,201.500000 
	C6.334315,193.661423 11.836535,186.438187 16.971470,178.962662 
	C32.370251,156.544861 47.592533,134.005798 63.021515,111.608978 
	C63.917339,110.308601 66.022156,109.143356 67.587151,109.113541 
	C78.745514,108.901024 89.909828,109.000191 102.347031,109.000191 
	C99.575394,113.606125 97.365936,117.742119 94.726532,121.582619 
	C84.019867,137.161484 73.158714,152.634064 62.400146,168.177414 
	C56.655190,176.477386 50.939770,184.799500 45.347874,193.202698 
	C43.666603,195.729202 42.445969,198.562256 41.007156,201.627441 
	C27.666666,202.000000 14.333333,202.000000 0.999999,201.500000 
z"/>
</svg>